<?xml version="1.0" standalone="no"?>
<!DOCTYPE svg PUBLIC "-//W3C//DTD SVG 20010904//EN"
 "http://www.w3.org/TR/2001/REC-SVG-20010904/DTD/svg10.dtd">
<svg version="1.0" xmlns="http://www.w3.org/2000/svg"
 width="1024.000000pt" height="1024.000000pt" viewBox="0 0 1024.000000 1024.000000"
 preserveAspectRatio="xMidYMid meet">
<metadata>
Created by potrace 1.14, written by Peter Selinger 2001-2017
</metadata>
<g transform="translate(0.000000,1024.000000) scale(0.100000,-0.100000)"
fill="#000000" stroke="none">
<path d="M4816 8843 c-1 -1 -58 -4 -126 -7 -69 -2 -134 -7 -145 -9 -96 -24
-259 -72 -295 -89 -25 -11 -62 -33 -82 -49 -20 -16 -40 -29 -43 -29 -4 0 -12
-6 -20 -12 -7 -7 -28 -24 -47 -37 -33 -25 -206 -198 -241 -243 -11 -13 -24
-33 -30 -45 -5 -13 -14 -23 -19 -23 -4 0 -8 -6 -8 -14 0 -8 -4 -16 -9 -18 -15
-5 -102 -154 -158 -268 -63 -129 -115 -276 -141 -401 -19 -86 -24 -118 -37
-234 -8 -75 -17 -120 -26 -137 -5 -10 -8 -18 -5 -18 3 0 0 -15 -5 -32 -6 -18
-12 -41 -14 -50 -25 -111 -148 -228 -285 -268 -68 -20 -90 -24 -259 -40 -211
-21 -362 -102 -489 -263 -30 -38 -75 -144 -86 -202 -3 -16 -9 -43 -12 -60 -4
-16 -9 -223 -10 -460 -3 -413 -5 -530 -19 -805 -15 -309 -22 -897 -12 -1030
14 -190 17 -218 46 -350 6 -25 13 -58 15 -75 8 -46 35 -152 59 -230 12 -38 22
-72 22 -75 0 -3 16 -36 34 -75 40 -82 149 -195 227 -235 27 -13 51 -27 54 -30
10 -10 137 -69 191 -89 78 -27 157 -40 275 -45 112 -4 149 -18 178 -67 10 -16
14 -29 10 -29 -3 0 -1 -7 6 -15 7 -8 10 -15 7 -15 -3 0 -2 -13 3 -29 4 -16 11
-62 15 -103 3 -40 8 -80 10 -88 3 -8 7 -49 10 -90 3 -41 8 -100 10 -130 2 -30
7 -89 10 -130 5 -70 11 -131 21 -189 2 -14 -1 -30 -7 -37 -15 -18 52 -167 102
-228 5 -6 19 -22 30 -36 95 -117 220 -199 395 -258 65 -22 135 -43 154 -46 19
-3 49 -8 65 -12 17 -3 100 -7 185 -8 130 -3 177 0 290 20 74 14 149 26 166 29
96 12 283 97 353 160 18 16 37 29 42 27 5 -1 9 3 9 9 0 6 12 23 28 37 74 72
125 183 183 407 17 66 32 122 34 125 2 3 6 24 10 47 3 23 11 64 19 91 13 50
14 140 2 253 -3 35 -9 91 -12 123 -3 33 -9 66 -13 74 -13 24 -1 52 26 58 29 8
176 -1 192 -10 6 -4 11 -16 11 -27 0 -11 6 -26 13 -34 10 -9 12 -28 7 -66 -10
-80 -4 -194 14 -284 31 -144 57 -242 81 -301 14 -33 25 -68 25 -79 0 -11 11
-32 25 -47 14 -15 25 -30 25 -33 0 -4 24 -30 53 -59 103 -101 208 -129 502
-132 110 -1 261 -5 335 -8 137 -6 201 0 307 32 29 9 179 116 250 179 40 35
127 177 163 264 27 64 54 167 65 246 3 21 8 49 11 63 2 14 6 72 9 130 4 102
13 163 57 395 11 61 22 121 25 135 2 14 12 63 23 110 10 47 21 108 24 135 11
99 18 141 36 230 16 79 33 177 45 255 4 30 14 117 20 182 3 26 7 64 9 85 3 21
8 70 11 108 4 39 10 97 14 131 8 69 7 227 -3 389 -3 61 -8 157 -11 215 -2 58
-6 116 -9 130 -2 14 -7 50 -11 80 -4 30 -8 62 -10 70 -2 8 -6 31 -10 50 -3 19
-10 53 -15 75 -5 22 -12 74 -16 115 -3 41 -8 78 -10 82 -9 14 38 132 73 187
102 157 198 385 219 521 2 14 7 36 10 50 3 14 8 36 10 50 3 14 11 58 19 97 14
66 14 81 -1 150 -9 43 -18 91 -21 108 -22 132 -93 302 -182 435 -34 49 -61 92
-61 95 0 5 -41 64 -275 396 -44 62 -91 131 -104 154 -60 99 -258 357 -301 392
-8 7 -12 13 -8 13 13 0 -164 178 -205 207 -23 15 -48 33 -55 40 -11 10 -102
72 -222 148 -58 38 -165 93 -201 104 -19 5 -72 24 -119 41 -78 29 -230 72
-304 86 -17 4 -161 8 -321 9 -159 2 -415 5 -568 7 -153 2 -280 2 -281 1z"/>
</g>
</svg>
